<svg viewBox="0 0 600 600" xmlns="http://www.w3.org/2000/svg"><defs><radialGradient id="bg" cx="50%" cy="40%" r="74%"><stop offset="0%" stop-color="#23252b"/><stop offset="100%" stop-color="#0b0c0f"/></radialGradient><linearGradient id="wTop" x1="0" y1="0" x2="0.18" y2="1"><stop offset="0%" stop-color="#eceef1"/><stop offset="100%" stop-color="#b0b6be"/></linearGradient><linearGradient id="wMid" x1="0" y1="0" x2="0.18" y2="1"><stop offset="0%" stop-color="#ccd1d7"/><stop offset="100%" stop-color="#9aa0a8"/></linearGradient><linearGradient id="face" x1="0" y1="0" x2="0" y2="1"><stop offset="0%" stop-color="#3c3f46"/><stop offset="55%" stop-color="#202329"/><stop offset="100%" stop-color="#0c0d10"/></linearGradient><radialGradient id="halo" cx="50%" cy="50%" r="50%"><stop offset="0%" stop-color="#fff" stop-opacity="0.16"/><stop offset="60%" stop-color="#fff" stop-opacity="0.04"/><stop offset="100%" stop-color="#fff" stop-opacity="0"/></radialGradient><linearGradient id="gold" x1="0" y1="0" x2="0" y2="1"><stop offset="0%" stop-color="#d2d7dd"/><stop offset="50%" stop-color="#9aa0a8"/><stop offset="100%" stop-color="#d2d7dd"/></linearGradient><clipPath id="disc"><circle cx="300" cy="300" r="284"/></clipPath></defs>
<g clip-path="url(#disc)">
<circle cx="300" cy="300" r="284" fill="url(#bg)"/>
<circle cx="300" cy="250" r="120" fill="url(#halo)"/>
<g transform="translate(600,0) scale(-1,1)"><g><path d="M300 366 C306 292 326 206 392 162 C430 138 466 156 474 206 C482 256 470 330 440 374 C414 414 356 414 322 396 C310 388 300 380 300 366 Z" fill="url(#wMid)" opacity="0.92"/><g transform="translate(321.2,373.7) rotate(40.00)"><path d="M0 0 C27.6 -34.4 80.0 -44.8 118.7 -34.8 Q142.1 -24.8 118.7 -14.9 C80.0 17.5 27.6 34.4 0 0 Z" fill="url(#wMid)" stroke="#7c838c" stroke-width="1.0" stroke-linejoin="round" stroke-opacity="0.55"/></g><g transform="translate(322.6,371.6) rotate(28.00)"><path d="M0 0 C30.1 -37.6 87.3 -48.9 129.4 -37.9 Q155.0 -27.1 129.4 -16.3 C87.3 19.1 30.1 37.6 0 0 Z" fill="url(#wMid)" stroke="#7c838c" stroke-width="1.0" stroke-linejoin="round" stroke-opacity="0.55"/></g><g transform="translate(323.5,369.3) rotate(16.00)"><path d="M0 0 C32.6 -40.7 94.5 -52.9 140.2 -41.1 Q167.9 -29.3 140.2 -17.6 C94.5 20.6 32.6 40.7 0 0 Z" fill="url(#wMid)" stroke="#7c838c" stroke-width="1.0" stroke-linejoin="round" stroke-opacity="0.55"/></g><g transform="translate(324.0,366.8) rotate(4.00)"><path d="M0 0 C35.1 -43.8 101.8 -57.0 150.9 -44.2 Q180.8 -31.6 150.9 -19.0 C101.8 22.2 35.1 43.8 0 0 Z" fill="url(#wMid)" stroke="#7c838c" stroke-width="1.0" stroke-linejoin="round" stroke-opacity="0.55"/></g><g transform="translate(323.9,364.3) rotate(-8.00)"><path d="M0 0 C37.6 -46.9 109.0 -61.0 161.7 -47.4 Q193.6 -33.8 161.7 -20.3 C109.0 23.8 37.6 46.9 0 0 Z" fill="url(#wMid)" stroke="#7c838c" stroke-width="1.0" stroke-linejoin="round" stroke-opacity="0.55"/></g><g transform="translate(323.3,361.9) rotate(-20.00)"><path d="M0 0 C40.1 -50.0 116.3 -65.1 172.4 -50.5 Q206.5 -36.1 172.4 -21.7 C116.3 25.4 40.1 50.0 0 0 Z" fill="url(#wMid)" stroke="#7c838c" stroke-width="1.0" stroke-linejoin="round" stroke-opacity="0.55"/></g><g transform="translate(322.2,359.6) rotate(-32.00)"><path d="M0 0 C42.6 -53.2 123.5 -69.1 183.2 -53.7 Q219.4 -38.3 183.2 -23.0 C123.5 27.0 42.6 53.2 0 0 Z" fill="url(#wMid)" stroke="#7c838c" stroke-width="1.0" stroke-linejoin="round" stroke-opacity="0.55"/></g><g transform="translate(320.6,357.7) rotate(-44.00)"><path d="M0 0 C45.1 -56.3 130.8 -73.2 193.9 -56.8 Q232.3 -40.6 193.9 -24.4 C130.8 28.5 45.1 56.3 0 0 Z" fill="url(#wMid)" stroke="#7c838c" stroke-width="1.0" stroke-linejoin="round" stroke-opacity="0.55"/></g><g transform="translate(318.7,356.1) rotate(-56.00)"><path d="M0 0 C47.6 -59.4 138.0 -77.3 204.7 -60.0 Q245.1 -42.8 204.7 -25.7 C138.0 30.1 47.6 59.4 0 0 Z" fill="url(#wMid)" stroke="#7c838c" stroke-width="1.0" stroke-linejoin="round" stroke-opacity="0.55"/></g><g transform="translate(330.7,384.1) rotate(44.00)"><path d="M0 0 C24.8 -32.2 71.9 -44.1 106.6 -36.6 Q127.7 -27.3 106.6 -18.0 C71.9 14.1 24.8 32.2 0 0 Z" fill="url(#wTop)" stroke="#969da6" stroke-width="1.0" stroke-linejoin="round" stroke-opacity="0.55"/><path d="M12.4 0 Q64.5 -13.6 101.7 -25.9" stroke="#6f777f" stroke-width="1.49" opacity="0.28" fill="none" stroke-linecap="round"/></g><g transform="translate(333.5,380.7) rotate(34.40)"><path d="M0 0 C27.7 -36.0 80.3 -49.3 119.0 -40.8 Q142.6 -30.4 119.0 -20.1 C80.3 15.8 27.7 36.0 0 0 Z" fill="url(#wTop)" stroke="#969da6" stroke-width="1.0" stroke-linejoin="round" stroke-opacity="0.55"/><path d="M13.8 0 Q72.0 -15.2 113.5 -28.9" stroke="#6f777f" stroke-width="1.66" opacity="0.28" fill="none" stroke-linecap="round"/></g><g transform="translate(335.6,376.9) rotate(24.80)"><path d="M0 0 C30.6 -39.7 88.6 -54.4 131.4 -45.1 Q157.4 -33.6 131.4 -22.2 C88.6 17.4 30.6 39.7 0 0 Z" fill="url(#wTop)" stroke="#969da6" stroke-width="1.0" stroke-linejoin="round" stroke-opacity="0.55"/><path d="M15.3 0 Q79.5 -16.8 125.3 -31.9" stroke="#6f777f" stroke-width="1.83" opacity="0.28" fill="none" stroke-linecap="round"/></g><g transform="translate(337.1,372.8) rotate(15.20)"><path d="M0 0 C33.4 -43.5 97.0 -59.5 143.8 -49.3 Q172.2 -36.8 143.8 -24.2 C97.0 19.1 33.4 43.5 0 0 Z" fill="url(#wTop)" stroke="#969da6" stroke-width="1.0" stroke-linejoin="round" stroke-opacity="0.55"/><path d="M16.7 0 Q86.9 -18.4 137.1 -34.9" stroke="#6f777f" stroke-width="2.01" opacity="0.28" fill="none" stroke-linecap="round"/></g><g transform="translate(337.9,368.5) rotate(5.60)"><path d="M0 0 C36.3 -47.2 105.3 -64.6 156.2 -53.6 Q187.0 -40.0 156.2 -26.3 C105.3 20.7 36.3 47.2 0 0 Z" fill="url(#wTop)" stroke="#969da6" stroke-width="1.0" stroke-linejoin="round" stroke-opacity="0.55"/><path d="M18.2 0 Q94.4 -20.0 148.9 -38.0" stroke="#6f777f" stroke-width="2.18" opacity="0.28" fill="none" stroke-linecap="round"/></g><g transform="translate(337.9,364.2) rotate(-4.00)"><path d="M0 0 C39.2 -51.0 113.7 -69.8 168.6 -57.8 Q201.9 -43.1 168.6 -28.4 C113.7 22.3 39.2 51.0 0 0 Z" fill="url(#wTop)" stroke="#969da6" stroke-width="1.0" stroke-linejoin="round" stroke-opacity="0.55"/><path d="M19.6 0 Q101.9 -21.6 160.7 -41.0" stroke="#6f777f" stroke-width="2.35" opacity="0.28" fill="none" stroke-linecap="round"/></g><g transform="translate(337.3,359.9) rotate(-13.60)"><path d="M0 0 C42.1 -54.7 122.0 -74.9 180.9 -62.1 Q216.7 -46.3 180.9 -30.5 C122.0 24.0 42.1 54.7 0 0 Z" fill="url(#wTop)" stroke="#969da6" stroke-width="1.0" stroke-linejoin="round" stroke-opacity="0.55"/><path d="M21.0 0 Q109.4 -23.1 172.5 -44.0" stroke="#6f777f" stroke-width="2.52" opacity="0.28" fill="none" stroke-linecap="round"/></g><g transform="translate(335.9,355.8) rotate(-23.20)"><path d="M0 0 C45.0 -58.4 130.4 -80.0 193.3 -66.3 Q231.5 -49.5 193.3 -32.6 C130.4 25.6 45.0 58.4 0 0 Z" fill="url(#wTop)" stroke="#969da6" stroke-width="1.0" stroke-linejoin="round" stroke-opacity="0.55"/><path d="M22.5 0 Q116.9 -24.7 184.3 -47.0" stroke="#6f777f" stroke-width="2.70" opacity="0.28" fill="none" stroke-linecap="round"/></g><g transform="translate(333.9,351.9) rotate(-32.80)"><path d="M0 0 C47.8 -62.2 138.7 -85.2 205.7 -70.6 Q246.4 -52.6 205.7 -34.7 C138.7 27.3 47.8 62.2 0 0 Z" fill="url(#wTop)" stroke="#969da6" stroke-width="1.0" stroke-linejoin="round" stroke-opacity="0.55"/><path d="M23.9 0 Q124.4 -26.3 196.1 -50.0" stroke="#6f777f" stroke-width="2.87" opacity="0.28" fill="none" stroke-linecap="round"/></g><g transform="translate(331.2,348.5) rotate(-42.40)"><path d="M0 0 C50.7 -65.9 147.1 -90.3 218.1 -74.8 Q261.2 -55.8 218.1 -36.8 C147.1 28.9 50.7 65.9 0 0 Z" fill="url(#wTop)" stroke="#969da6" stroke-width="1.0" stroke-linejoin="round" stroke-opacity="0.55"/><path d="M25.4 0 Q131.9 -27.9 208.0 -53.0" stroke="#6f777f" stroke-width="3.04" opacity="0.28" fill="none" stroke-linecap="round"/></g><g transform="translate(328.0,345.5) rotate(-52.00)"><path d="M0 0 C53.6 -69.7 155.4 -95.4 230.5 -79.1 Q276.0 -59.0 230.5 -38.9 C155.4 30.6 53.6 69.7 0 0 Z" fill="url(#wTop)" stroke="#969da6" stroke-width="1.0" stroke-linejoin="round" stroke-opacity="0.55"/><path d="M26.8 0 Q139.4 -29.5 219.8 -56.0" stroke="#6f777f" stroke-width="3.22" opacity="0.28" fill="none" stroke-linecap="round"/></g><ellipse cx="314" cy="364" rx="18" ry="24" fill="url(#wMid)"/><g transform="translate(315.9,366.8) rotate(12.00)"><path d="M0 0 C12.0 -19.3 34.8 -21.4 51.6 -12.8 Q61.8 -7.2 51.6 -1.6 C34.8 13.5 12.0 19.3 0 0 Z" fill="url(#wTop)" stroke="#9aa1aa" stroke-width="0.9" stroke-linejoin="round" stroke-opacity="0.55"/></g><g transform="translate(316.0,365.9) rotate(-2.00)"><path d="M0 0 C13.4 -21.6 38.9 -23.9 57.6 -14.3 Q69.0 -8.0 57.6 -1.8 C38.9 15.1 13.4 21.6 0 0 Z" fill="url(#wTop)" stroke="#9aa1aa" stroke-width="0.9" stroke-linejoin="round" stroke-opacity="0.55"/></g><g transform="translate(315.8,364.9) rotate(-16.00)"><path d="M0 0 C14.8 -23.9 42.9 -26.4 63.6 -15.8 Q76.2 -8.9 63.6 -2.0 C42.9 16.7 14.8 23.9 0 0 Z" fill="url(#wTop)" stroke="#9aa1aa" stroke-width="0.9" stroke-linejoin="round" stroke-opacity="0.55"/></g><g transform="translate(315.5,364.0) rotate(-30.00)"><path d="M0 0 C16.2 -26.1 47.0 -28.9 69.7 -17.3 Q83.4 -9.7 69.7 -2.2 C47.0 18.3 16.2 26.1 0 0 Z" fill="url(#wTop)" stroke="#9aa1aa" stroke-width="0.9" stroke-linejoin="round" stroke-opacity="0.55"/></g><g transform="translate(314.9,363.2) rotate(-44.00)"><path d="M0 0 C17.6 -28.4 51.0 -31.5 75.7 -18.7 Q90.6 -10.6 75.7 -2.4 C51.0 19.8 17.6 28.4 0 0 Z" fill="url(#wTop)" stroke="#9aa1aa" stroke-width="0.9" stroke-linejoin="round" stroke-opacity="0.55"/></g></g></g>
<g><path d="M300 366 C306 292 326 206 392 162 C430 138 466 156 474 206 C482 256 470 330 440 374 C414 414 356 414 322 396 C310 388 300 380 300 366 Z" fill="url(#wMid)" opacity="0.92"/><g transform="translate(321.2,373.7) rotate(40.00)"><path d="M0 0 C27.6 -34.4 80.0 -44.8 118.7 -34.8 Q142.1 -24.8 118.7 -14.9 C80.0 17.5 27.6 34.4 0 0 Z" fill="url(#wMid)" stroke="#7c838c" stroke-width="1.0" stroke-linejoin="round" stroke-opacity="0.55"/></g><g transform="translate(322.6,371.6) rotate(28.00)"><path d="M0 0 C30.1 -37.6 87.3 -48.9 129.4 -37.9 Q155.0 -27.1 129.4 -16.3 C87.3 19.1 30.1 37.6 0 0 Z" fill="url(#wMid)" stroke="#7c838c" stroke-width="1.0" stroke-linejoin="round" stroke-opacity="0.55"/></g><g transform="translate(323.5,369.3) rotate(16.00)"><path d="M0 0 C32.6 -40.7 94.5 -52.9 140.2 -41.1 Q167.9 -29.3 140.2 -17.6 C94.5 20.6 32.6 40.7 0 0 Z" fill="url(#wMid)" stroke="#7c838c" stroke-width="1.0" stroke-linejoin="round" stroke-opacity="0.55"/></g><g transform="translate(324.0,366.8) rotate(4.00)"><path d="M0 0 C35.1 -43.8 101.8 -57.0 150.9 -44.2 Q180.8 -31.6 150.9 -19.0 C101.8 22.2 35.1 43.8 0 0 Z" fill="url(#wMid)" stroke="#7c838c" stroke-width="1.0" stroke-linejoin="round" stroke-opacity="0.55"/></g><g transform="translate(323.9,364.3) rotate(-8.00)"><path d="M0 0 C37.6 -46.9 109.0 -61.0 161.7 -47.4 Q193.6 -33.8 161.7 -20.3 C109.0 23.8 37.6 46.9 0 0 Z" fill="url(#wMid)" stroke="#7c838c" stroke-width="1.0" stroke-linejoin="round" stroke-opacity="0.55"/></g><g transform="translate(323.3,361.9) rotate(-20.00)"><path d="M0 0 C40.1 -50.0 116.3 -65.1 172.4 -50.5 Q206.5 -36.1 172.4 -21.7 C116.3 25.4 40.1 50.0 0 0 Z" fill="url(#wMid)" stroke="#7c838c" stroke-width="1.0" stroke-linejoin="round" stroke-opacity="0.55"/></g><g transform="translate(322.2,359.6) rotate(-32.00)"><path d="M0 0 C42.6 -53.2 123.5 -69.1 183.2 -53.7 Q219.4 -38.3 183.2 -23.0 C123.5 27.0 42.6 53.2 0 0 Z" fill="url(#wMid)" stroke="#7c838c" stroke-width="1.0" stroke-linejoin="round" stroke-opacity="0.55"/></g><g transform="translate(320.6,357.7) rotate(-44.00)"><path d="M0 0 C45.1 -56.3 130.8 -73.2 193.9 -56.8 Q232.3 -40.6 193.9 -24.4 C130.8 28.5 45.1 56.3 0 0 Z" fill="url(#wMid)" stroke="#7c838c" stroke-width="1.0" stroke-linejoin="round" stroke-opacity="0.55"/></g><g transform="translate(318.7,356.1) rotate(-56.00)"><path d="M0 0 C47.6 -59.4 138.0 -77.3 204.7 -60.0 Q245.1 -42.8 204.7 -25.7 C138.0 30.1 47.6 59.4 0 0 Z" fill="url(#wMid)" stroke="#7c838c" stroke-width="1.0" stroke-linejoin="round" stroke-opacity="0.55"/></g><g transform="translate(330.7,384.1) rotate(44.00)"><path d="M0 0 C24.8 -32.2 71.9 -44.1 106.6 -36.6 Q127.7 -27.3 106.6 -18.0 C71.9 14.1 24.8 32.2 0 0 Z" fill="url(#wTop)" stroke="#969da6" stroke-width="1.0" stroke-linejoin="round" stroke-opacity="0.55"/><path d="M12.4 0 Q64.5 -13.6 101.7 -25.9" stroke="#6f777f" stroke-width="1.49" opacity="0.28" fill="none" stroke-linecap="round"/></g><g transform="translate(333.5,380.7) rotate(34.40)"><path d="M0 0 C27.7 -36.0 80.3 -49.3 119.0 -40.8 Q142.6 -30.4 119.0 -20.1 C80.3 15.8 27.7 36.0 0 0 Z" fill="url(#wTop)" stroke="#969da6" stroke-width="1.0" stroke-linejoin="round" stroke-opacity="0.55"/><path d="M13.8 0 Q72.0 -15.2 113.5 -28.9" stroke="#6f777f" stroke-width="1.66" opacity="0.28" fill="none" stroke-linecap="round"/></g><g transform="translate(335.6,376.9) rotate(24.80)"><path d="M0 0 C30.6 -39.7 88.6 -54.4 131.4 -45.1 Q157.4 -33.6 131.4 -22.2 C88.6 17.4 30.6 39.7 0 0 Z" fill="url(#wTop)" stroke="#969da6" stroke-width="1.0" stroke-linejoin="round" stroke-opacity="0.55"/><path d="M15.3 0 Q79.5 -16.8 125.3 -31.9" stroke="#6f777f" stroke-width="1.83" opacity="0.28" fill="none" stroke-linecap="round"/></g><g transform="translate(337.1,372.8) rotate(15.20)"><path d="M0 0 C33.4 -43.5 97.0 -59.5 143.8 -49.3 Q172.2 -36.8 143.8 -24.2 C97.0 19.1 33.4 43.5 0 0 Z" fill="url(#wTop)" stroke="#969da6" stroke-width="1.0" stroke-linejoin="round" stroke-opacity="0.55"/><path d="M16.7 0 Q86.9 -18.4 137.1 -34.9" stroke="#6f777f" stroke-width="2.01" opacity="0.28" fill="none" stroke-linecap="round"/></g><g transform="translate(337.9,368.5) rotate(5.60)"><path d="M0 0 C36.3 -47.2 105.3 -64.6 156.2 -53.6 Q187.0 -40.0 156.2 -26.3 C105.3 20.7 36.3 47.2 0 0 Z" fill="url(#wTop)" stroke="#969da6" stroke-width="1.0" stroke-linejoin="round" stroke-opacity="0.55"/><path d="M18.2 0 Q94.4 -20.0 148.9 -38.0" stroke="#6f777f" stroke-width="2.18" opacity="0.28" fill="none" stroke-linecap="round"/></g><g transform="translate(337.9,364.2) rotate(-4.00)"><path d="M0 0 C39.2 -51.0 113.7 -69.8 168.6 -57.8 Q201.9 -43.1 168.6 -28.4 C113.7 22.3 39.2 51.0 0 0 Z" fill="url(#wTop)" stroke="#969da6" stroke-width="1.0" stroke-linejoin="round" stroke-opacity="0.55"/><path d="M19.6 0 Q101.9 -21.6 160.7 -41.0" stroke="#6f777f" stroke-width="2.35" opacity="0.28" fill="none" stroke-linecap="round"/></g><g transform="translate(337.3,359.9) rotate(-13.60)"><path d="M0 0 C42.1 -54.7 122.0 -74.9 180.9 -62.1 Q216.7 -46.3 180.9 -30.5 C122.0 24.0 42.1 54.7 0 0 Z" fill="url(#wTop)" stroke="#969da6" stroke-width="1.0" stroke-linejoin="round" stroke-opacity="0.55"/><path d="M21.0 0 Q109.4 -23.1 172.5 -44.0" stroke="#6f777f" stroke-width="2.52" opacity="0.28" fill="none" stroke-linecap="round"/></g><g transform="translate(335.9,355.8) rotate(-23.20)"><path d="M0 0 C45.0 -58.4 130.4 -80.0 193.3 -66.3 Q231.5 -49.5 193.3 -32.6 C130.4 25.6 45.0 58.4 0 0 Z" fill="url(#wTop)" stroke="#969da6" stroke-width="1.0" stroke-linejoin="round" stroke-opacity="0.55"/><path d="M22.5 0 Q116.9 -24.7 184.3 -47.0" stroke="#6f777f" stroke-width="2.70" opacity="0.28" fill="none" stroke-linecap="round"/></g><g transform="translate(333.9,351.9) rotate(-32.80)"><path d="M0 0 C47.8 -62.2 138.7 -85.2 205.7 -70.6 Q246.4 -52.6 205.7 -34.7 C138.7 27.3 47.8 62.2 0 0 Z" fill="url(#wTop)" stroke="#969da6" stroke-width="1.0" stroke-linejoin="round" stroke-opacity="0.55"/><path d="M23.9 0 Q124.4 -26.3 196.1 -50.0" stroke="#6f777f" stroke-width="2.87" opacity="0.28" fill="none" stroke-linecap="round"/></g><g transform="translate(331.2,348.5) rotate(-42.40)"><path d="M0 0 C50.7 -65.9 147.1 -90.3 218.1 -74.8 Q261.2 -55.8 218.1 -36.8 C147.1 28.9 50.7 65.9 0 0 Z" fill="url(#wTop)" stroke="#969da6" stroke-width="1.0" stroke-linejoin="round" stroke-opacity="0.55"/><path d="M25.4 0 Q131.9 -27.9 208.0 -53.0" stroke="#6f777f" stroke-width="3.04" opacity="0.28" fill="none" stroke-linecap="round"/></g><g transform="translate(328.0,345.5) rotate(-52.00)"><path d="M0 0 C53.6 -69.7 155.4 -95.4 230.5 -79.1 Q276.0 -59.0 230.5 -38.9 C155.4 30.6 53.6 69.7 0 0 Z" fill="url(#wTop)" stroke="#969da6" stroke-width="1.0" stroke-linejoin="round" stroke-opacity="0.55"/><path d="M26.8 0 Q139.4 -29.5 219.8 -56.0" stroke="#6f777f" stroke-width="3.22" opacity="0.28" fill="none" stroke-linecap="round"/></g><ellipse cx="314" cy="364" rx="18" ry="24" fill="url(#wMid)"/><g transform="translate(315.9,366.8) rotate(12.00)"><path d="M0 0 C12.0 -19.3 34.8 -21.4 51.6 -12.8 Q61.8 -7.2 51.6 -1.6 C34.8 13.5 12.0 19.3 0 0 Z" fill="url(#wTop)" stroke="#9aa1aa" stroke-width="0.9" stroke-linejoin="round" stroke-opacity="0.55"/></g><g transform="translate(316.0,365.9) rotate(-2.00)"><path d="M0 0 C13.4 -21.6 38.9 -23.9 57.6 -14.3 Q69.0 -8.0 57.6 -1.8 C38.9 15.1 13.4 21.6 0 0 Z" fill="url(#wTop)" stroke="#9aa1aa" stroke-width="0.9" stroke-linejoin="round" stroke-opacity="0.55"/></g><g transform="translate(315.8,364.9) rotate(-16.00)"><path d="M0 0 C14.8 -23.9 42.9 -26.4 63.6 -15.8 Q76.2 -8.9 63.6 -2.0 C42.9 16.7 14.8 23.9 0 0 Z" fill="url(#wTop)" stroke="#9aa1aa" stroke-width="0.9" stroke-linejoin="round" stroke-opacity="0.55"/></g><g transform="translate(315.5,364.0) rotate(-30.00)"><path d="M0 0 C16.2 -26.1 47.0 -28.9 69.7 -17.3 Q83.4 -9.7 69.7 -2.2 C47.0 18.3 16.2 26.1 0 0 Z" fill="url(#wTop)" stroke="#9aa1aa" stroke-width="0.9" stroke-linejoin="round" stroke-opacity="0.55"/></g><g transform="translate(314.9,363.2) rotate(-44.00)"><path d="M0 0 C17.6 -28.4 51.0 -31.5 75.7 -18.7 Q90.6 -10.6 75.7 -2.4 C51.0 19.8 17.6 28.4 0 0 Z" fill="url(#wTop)" stroke="#9aa1aa" stroke-width="0.9" stroke-linejoin="round" stroke-opacity="0.55"/></g></g>
<g><path d="M182 612 C184 522 206 456 242 426 C257 412 282 408 300 408 C318 408 343 412 358 426 C394 456 416 522 418 612 Z" fill="#111319" stroke="#cdd2d9" stroke-width="1.4" stroke-opacity="0.20"/><path d="M236 470 C266 452 334 452 364 470" stroke="#cdd2d9" stroke-width="1.4" stroke-opacity="0.12" fill="none"/><path d="M250 360 C231 320 233 250 270 216 C286 199 314 199 330 216 C367 250 369 320 350 360 C334 373 266 373 250 360 Z" fill="#15171d" stroke="#d6dbe1" stroke-width="1.6" stroke-opacity="0.30"/><ellipse cx="300" cy="292" rx="29" ry="39" fill="url(#face)"/><path d="M258 252 C270 216 330 216 342 252" stroke="#dfe3e8" stroke-width="2" stroke-opacity="0.32" fill="none" stroke-linecap="round"/><path d="M276 266 C266 288 268 320 283 338" stroke="#cfd4da" stroke-width="3" stroke-opacity="0.30" fill="none" stroke-linecap="round"/><path d="M280 330 C290 340 310 340 320 330" stroke="#000" stroke-width="3" stroke-opacity="0.22" fill="none" stroke-linecap="round"/></g>
</g>
<circle cx="300" cy="300" r="284" fill="none" stroke="url(#gold)" stroke-width="6"/>
<circle cx="300" cy="300" r="266" fill="none" stroke="#9aa0a8" stroke-width="1.3" stroke-opacity="0.55"/>
<g fill="#e2e6ea"><path d="M300 52 L303.4 70 L300 86 L296.6 70 Z"/><path d="M284 70 L300 73.4 L316 70 L300 66.6 Z" opacity="0.85"/></g></svg>
